<svg xmlns="http://www.w3.org/2000/svg" width="53" height="53" viewBox="0 0 53 53">
  <g id="Voy_al_Super_Logo" data-name="Voy al Super Logo" transform="translate(1.5 1.5)">
    <path id="Icon_awesome-opencart" data-name="Icon awesome-opencart" d="M26.457,28.837a2.859,2.859,0,1,1-2.85-2.983A2.9,2.9,0,0,1,26.457,28.837ZM10.588,25.854a2.979,2.979,0,0,0,0,5.953,2.979,2.979,0,0,0,0-5.953ZM28.819,8.268C9.931,8.268,5.119,7.434,0,1.807c2.15,3.367,3.331,9.7,23.319,9.392,20.832-.326,8.125,5.608,4.425,12.3C39.413,12.645,47.707,8.268,28.819,8.268Z" transform="translate(5.289 8.578)" fill="#fff"/>
    <path id="Icon_feather-circle" data-name="Icon feather-circle" d="M53,28A25,25,0,1,1,28,3,25,25,0,0,1,53,28Z" transform="translate(-3 -3)" fill="none" stroke="#fff" stroke-linecap="round" stroke-linejoin="round" stroke-width="3"/>
  </g>
</svg>
